<svg width="18" height="18" viewBox="0 0 18 18" fill="none" xmlns="http://www.w3.org/2000/svg">
<path d="M8.98926 0.299805C13.7891 0.299805 17.6804 4.1904 17.6807 8.99023C17.6807 12.8289 15.193 16.0845 11.7422 17.2363C11.3018 17.321 11.1445 17.0499 11.1445 16.8174C11.1445 16.532 11.1553 15.5952 11.1553 14.4346C11.1553 13.6237 10.878 13.0926 10.5664 12.8242C12.5019 12.6092 14.5342 11.8747 14.5342 8.53613C14.5342 7.58701 14.1976 6.81177 13.6406 6.2041C13.7297 5.9843 14.0279 5.1009 13.5537 3.9043C13.5502 3.90318 12.8212 3.67353 11.166 4.79492C10.472 4.60236 9.72856 4.50569 8.99023 4.50195C8.25157 4.50572 7.50824 4.60242 6.81543 4.79492C5.17593 3.68489 4.44386 3.89876 4.42578 3.9043C3.9526 5.10085 4.25018 5.98418 4.33984 6.2041C3.78396 6.81177 3.44531 7.58704 3.44531 8.53613C3.44532 11.8663 5.47458 12.6112 7.4043 12.8311C7.15621 13.0482 6.9315 13.4319 6.85254 13.9932C6.3575 14.2156 5.09846 14.5988 4.32324 13.2715C4.32324 13.2715 3.86424 12.4366 2.99219 12.375C2.99219 12.375 2.14315 12.3647 2.93164 12.9033C2.93164 12.9033 3.50213 13.1707 3.89746 14.1748C3.90115 14.1869 4.41586 15.8627 6.82422 15.3398C6.82848 16.0643 6.83593 16.6106 6.83594 16.8174C6.83594 17.0478 6.67787 17.3167 6.24316 17.2373C2.78972 16.0876 0.299805 12.8294 0.299805 8.99023C0.300037 4.1905 4.19111 0.29997 8.98926 0.299805Z" fill="black"/>
</svg>
