<svg width="221" height="52" viewBox="0 0 221 52" fill="none" xmlns="http://www.w3.org/2000/svg">
<path d="M79.736 21.0733C77.8929 14.4892 73.3875 11.3597 69.2098 11.3597C63.8033 11.3597 58.8884 16.6432 60.9772 26.3568C62.6565 34.1196 67.981 37.1677 73.2237 37.1677C78.4663 37.1677 83.9956 33.9163 85.1834 29.2018L85.6749 29.2424C83.9546 35.8672 78.9168 39.4844 71.5853 39.4844C63.148 39.4844 56.5128 34.2008 56.5128 24.853C56.5128 15.5052 63.148 10.2217 71.5853 10.2217C75.2716 10.2217 82.8488 12.2132 82.8488 17.1309C82.8488 19.2443 81.4153 20.3417 80.2275 20.8701L79.736 21.0733Z" fill="white"/>
<path d="M89.2792 10.6279H93.6207V23.8774H107.546V10.6279H111.929V39.0778H107.546V24.7716H93.6207V39.0778H89.2792V10.6279Z" fill="white"/>
<path d="M117.499 10.6279H121.841V39.0778H117.499V10.6279Z" fill="white"/>
<path d="M127.247 15.7489V10.6279H146.62L131.179 38.2649H134.415C137.405 38.2649 141.05 37.1269 143.508 35.3793L145.433 33.9162V39.0778H125.814L141.296 11.5627H138.142C135.398 11.5627 132.039 12.5381 129.746 14.0419L127.247 15.7489Z" fill="white"/>
<path d="M167.017 33.9139V39.0755H150.634V10.6279H154.935V38.1836H156.204C159.071 38.1836 162.553 37.0863 164.928 35.5012L167.017 33.9162V33.9139Z" fill="white"/>
<path d="M175.127 39.0758H168L180.615 10.626H184.629L196.138 39.0758H190.978L187.496 29.8499H173.407C172.874 32.6949 173.325 35.8651 174.717 38.3036L175.127 39.0758ZM187.169 28.9558L181.107 12.78L180.82 12.1704L174.185 27.4114C173.939 27.8991 173.775 28.4275 173.612 28.9558H187.169Z" fill="white"/>
<path d="M199.21 10.6279H209.327C216.74 10.6279 218.542 13.9606 218.542 17.9436C218.542 21.6827 215.88 24.4871 212.153 24.4871V24.6903C218.542 24.6903 220.386 28.0636 220.386 31.5589C220.386 35.2574 218.133 39.0778 210.433 39.0778H199.21V10.6279ZM209.859 24.3651C212.44 24.3651 214.242 21.0324 214.242 17.781C214.242 14.5296 212.522 11.5221 209.859 11.5221H203.552L203.511 24.3651H209.859ZM209.9 38.1836C213.668 38.1836 215.757 34.7697 215.757 31.6402C215.757 28.3075 213.505 25.2593 210.269 25.2593H203.552V38.1836H209.9Z" fill="white"/>
<path d="M50.0893 49.7037H0V0H50.0893V49.7037ZM1.36527 48.3489H48.724V1.35475H1.36527V48.3489Z" fill="white"/>
<path d="M41.0445 34.0408C41.0445 36.0504 40.669 37.9741 39.9796 39.7421H34.7119C35.8997 37.737 36.5914 35.3391 36.5914 32.7628C36.5914 25.7158 31.4216 20.0056 25.0458 20.0056C18.67 20.0056 13.5002 25.7158 13.5002 32.7628C13.5002 35.3391 14.192 37.737 15.3798 39.7421H10.1098C9.42037 37.9741 9.04492 36.0504 9.04492 34.0408C9.04492 25.271 16.208 18.1631 25.0458 18.1631C33.8836 18.1631 41.0445 25.271 41.0445 34.0408Z" fill="white"/>
<path d="M37.2764 9.95996C34.357 13.7826 29.731 16.2528 24.5225 16.2528C20.4996 16.2528 16.8202 14.7784 14.01 12.3443L15.2661 11.0438C17.2912 12.9653 19.9762 14.1326 22.9252 14.1326C26.3952 14.1326 29.5035 12.5137 31.5946 9.95996H37.2764Z" fill="white"/>
<path d="M14.688 10.4815L13.4206 11.7979L12.8108 9.95996L14.688 10.4815Z" fill="white"/>
</svg>
